<?xml version="1.0" standalone="no"?>
<!DOCTYPE svg PUBLIC "-//W3C//DTD SVG 20010904//EN"
 "http://www.w3.org/TR/2001/REC-SVG-20010904/DTD/svg10.dtd">
<svg version="1.0" xmlns="http://www.w3.org/2000/svg"
 width="700.000000pt" height="700.000000pt" viewBox="0 0 700.000000 700.000000"
 preserveAspectRatio="xMidYMid meet">
<metadata>
Created by potrace 1.11, written by Peter Selinger 2001-2013
</metadata>
<g transform="translate(0.000000,700.000000) scale(0.100000,-0.100000)"
fill="#000000" stroke="none">
<path d="M3539 6996 c-2 -2 -42 -7 -89 -10 -88 -7 -131 -12 -190 -22 -19 -3
-51 -8 -70 -10 -19 -3 -80 -14 -135 -25 -444 -91 -749 -251 -865 -455 -86
-150 5 -322 172 -325 82 -2 151 36 192 106 23 39 88 88 173 130 67 33 281 108
338 119 17 3 89 16 160 30 72 14 159 27 195 30 72 6 405 7 460 2 19 -2 80 -7
135 -11 55 -4 113 -9 130 -11 16 -2 53 -6 80 -9 79 -10 143 -20 250 -41 279
-54 565 -163 773 -292 275 -171 530 -435 683 -707 136 -243 199 -456 204 -695
3 -151 -5 -230 -40 -372 -25 -104 -33 -123 -101 -266 -37 -78 -124 -224 -144
-242 -3 -3 -23 -27 -45 -55 -136 -172 -363 -359 -590 -485 -266 -149 -428
-207 -976 -354 -563 -151 -781 -211 -864 -240 -50 -18 -247 -78 -260 -80 -6 0
-10 54 -10 143 -1 167 -12 152 130 171 505 66 1005 315 1379 685 289 286 475
585 616 995 35 101 83 314 95 420 3 30 8 71 11 90 12 84 14 257 3 297 -16 59
-69 118 -127 140 -45 17 -147 18 -2332 17 l-2285 0 -40 -21 c-48 -25 -76 -55
-103 -108 -17 -35 -20 -56 -17 -155 6 -255 42 -454 130 -725 159 -488 539
-974 988 -1264 329 -212 694 -341 1092 -384 l30 -4 0 -231 0 -232 -30 -11
c-191 -74 -554 -264 -670 -351 -278 -208 -407 -368 -476 -588 -20 -64 -24 -95
-23 -210 0 -114 4 -145 23 -200 71 -199 198 -329 411 -421 170 -73 353 -106
600 -108 85 0 157 -1 160 -1 3 0 6 -49 6 -110 l0 -110 -25 0 c-14 0 -243 -1
-508 -1 -331 0 -492 -3 -515 -11 -183 -62 -206 -302 -37 -394 33 -18 89 -19
1289 -22 l1254 -2 52 25 c104 51 147 177 97 282 -20 43 -82 96 -128 110 -24 8
-195 12 -508 12 -260 0 -488 1 -507 1 l-36 0 1 132 0 132 55 13 c30 7 109 24
175 38 199 43 468 128 625 197 120 53 329 164 375 200 214 165 303 263 325
361 30 136 -72 261 -213 258 -71 -1 -130 -35 -181 -106 -111 -153 -392 -307
-776 -427 -77 -24 -235 -64 -365 -93 -20 -4 -21 -2 -20 553 l0 557 190 63
c257 85 1167 345 1322 377 10 2 72 20 138 40 772 235 1343 675 1625 1250 95
194 155 397 177 602 10 89 9 299 -1 388 -34 305 -163 626 -378 938 -18 27 -40
56 -48 64 -8 9 -22 26 -30 39 -26 38 -141 164 -230 250 -261 255 -589 449
-959 568 -158 51 -371 101 -521 121 -93 13 -115 16 -130 20 -8 2 -53 7 -100
10 -47 4 -105 9 -130 11 -55 6 -486 14 -491 10z m1365 -1790 c-3 -17 -7 -47
-10 -66 -4 -19 -8 -48 -11 -65 -9 -58 -53 -225 -79 -297 -72 -201 -189 -413
-317 -578 -75 -97 -280 -297 -379 -371 -234 -174 -487 -291 -777 -359 -148
-35 -290 -48 -486 -45 -99 2 -190 6 -202 9 -11 2 -43 8 -70 11 -26 4 -64 11
-83 15 -19 5 -50 12 -68 15 -18 3 -86 23 -150 44 -421 138 -777 404 -1040 775
-23 33 -42 62 -42 65 0 3 356 6 791 6 597 0 801 3 833 12 53 16 110 72 132
129 30 79 5 176 -59 230 -68 57 -22 55 -1006 54 l-907 0 -23 77 c-13 43 -27
89 -31 103 -20 59 -53 247 -46 258 3 5 911 8 2019 8 l2015 0 -4 -30z m-2229
-3631 l0 -495 -65 -1 c-248 -4 -382 13 -520 68 -130 51 -193 128 -191 234 3
206 201 405 608 611 85 43 157 78 161 78 4 0 7 -223 7 -495z"/>
</g>
</svg>
